<svg xmlns="http://www.w3.org/2000/svg" width="31.999" height="31.997" viewBox="0 0 31.999 31.997">
  <g id="icon-magnifier" transform="translate(0 0)">
    <path id="icon-magnifier-2" d="M20.921,31.9a11.565,11.565,0,0,0,7.458-2.7l1.077,1.077-.358.358a1,1,0,0,0,0,1.414L37.355,40.3a1,1,0,0,0,1.414,0l2.208-2.208a1,1,0,0,0,0-1.414L32.72,28.421a1,1,0,0,0-1.414,0l-.436.436L29.8,27.784A11.639,11.639,0,1,0,20.921,31.9Zm17.934,5.487-.794.793-6.843-6.842.794-.793ZM14.1,13.423a9.651,9.651,0,1,1-2.827,6.825A9.587,9.587,0,0,1,14.1,13.423Z" transform="translate(-9.271 -8.595)" fill="#231f20"/>
  </g>
</svg>
